<svg xmlns="http://www.w3.org/2000/svg" version="1.1" xmlns:xlink="http://www.w3.org/1999/xlink" xmlns:svgjs="http://svgjs.com/svgjs" width="1000" height="1000"><rect width="1000" height="1000" rx="200" ry="200" fill="#000000"></rect><g transform="matrix(36.8421052631579,0,0,36.8421052631579,153.77233034058617,211.63374463978562)"><svg xmlns="http://www.w3.org/2000/svg" version="1.1" xmlns:xlink="http://www.w3.org/1999/xlink" xmlns:svgjs="http://svgjs.com/svgjs" width="19" height="16"><svg width="19" height="16" viewBox="0 0 19 16" fill="none" xmlns="http://www.w3.org/2000/svg">
<path d="M4.64844 15.1953C3.82161 15.1953 3.07943 15.0488 2.42188 14.7559C1.76432 14.4564 1.24349 14.0202 0.859375 13.4473C0.47526 12.8743 0.283203 12.1777 0.283203 11.3574V11.0742H2.46094V11.3574C2.46094 11.7546 2.55208 12.1029 2.73438 12.4023C2.92318 12.7018 3.18034 12.9329 3.50586 13.0957C3.83789 13.252 4.21875 13.3301 4.64844 13.3301C5.11068 13.3301 5.50456 13.2324 5.83008 13.0371C6.1556 12.8418 6.40299 12.5553 6.57227 12.1777C6.74154 11.7936 6.82617 11.3249 6.82617 10.7715V0.449219H9.00391V10.7715C9.00391 11.7025 8.82487 12.5 8.4668 13.1641C8.11523 13.8216 7.61393 14.3262 6.96289 14.6777C6.31185 15.0228 5.54036 15.1953 4.64844 15.1953ZM13.7992 8.63281L13.9359 5.63477L11.4164 7.26562L10.6352 5.91797L13.3109 4.55078L10.6352 3.18359L11.4164 1.81641L13.9359 3.44727L13.7992 0.449219H15.3422L15.2055 3.44727L17.725 1.81641L18.5063 3.18359L15.8305 4.55078L18.5063 5.91797L17.725 7.26562L15.2055 5.63477L15.3422 8.63281H13.7992Z" fill="#FAFAFA"></path>
</svg></svg></g></svg>